# xmcd
#
# Track frame offsets: 
#        150
#        11798
#        26596
#        40121
#        52867
#        67040
#        80617
#        93527
#        107837
#        122033
#        134721
#        149458
#        162009
#        176196
#        189949
#        202976
#        218648
#        232547
#        246136
#        257250
#
# Disc length: 3610 seconds
#
# Revision: 2
# Processed by: cddbd v1.5.2PL0 Copyright (c) Steve Scherf et al.
# Submitted via: ExactAudioCopy v0.99pb5
#
DISCID=0f0e1814
DTITLE=Memphis Minnie - The Essential Recordings CD2
DYEAR=2010
DGENRE=Blues
TTITLE0=In My Girlish Days
TTITLE1=Reachin' Pete
TTITLE2=New Dirty Dozen
TTITLE3=What's The Matter With The Mill?
TTITLE4=Let's Go To Town
TTITLE5=Where Is My Good Man?
TTITLE6=Drunken Barrelhouse Blues
TTITLE7=I'm A Gamblin' Woman
TTITLE8=Can I Do It For You? Pt 1
TTITLE9=I'd Rather See Him Dead
TTITLE10=Chickasaw Train Blues (Low Down Dirty Thing)
TTITLE11=Dirty Mother For You
TTITLE12=He's In The Ring (Doing That Same Old Thing)
TTITLE13=Stinging Snake Blues
TTITLE14=Selling My Pork Chops
TTITLE15=Ball And Chain Blues
TTITLE16=Moaning The Blues
TTITLE17=New Orleans Stop Time
TTITLE18=Keep On Goin'
TTITLE19=I'm A Bad Luck Woman
EXTD=
EXTT0=
EXTT1=
EXTT2=
EXTT3=
EXTT4=
EXTT5=
EXTT6=
EXTT7=
EXTT8=
EXTT9=
EXTT10=
EXTT11=
EXTT12=
EXTT13=
EXTT14=
EXTT15=
EXTT16=
EXTT17=
EXTT18=
EXTT19=
PLAYORDER=
